# AST/ASF file generated using VICON BodyLanguage
# -----------------------------------------------
:version 1.10
:name VICON
:units
  mass 1.0
  length 0.45
  angle deg
:documentation
   .ast/.asf automatically generated from VICON data using
   VICON BodyBuilder and BodyLanguage model FoxedUp or BRILLIANT.MOD
:root
   order TX TY TZ RX RY RZ
   axis XYZ
   position 0 0 0  
   orientation 0 0 0 
:bonedata
  begin
     id 1 
     name lhipjoint
     direction 0.630305 -0.712092 0.309259 
     length 2.29033 
     axis 0 0 0  XYZ
  end
  begin
     id 2 
     name lfemur
     direction 0.34202 -0.939693 0  
     length 6.43538  
     axis 0 0 20  XYZ
    dof rx ry rz
    limits (-160.0 20.0)
           (-70.0 70.0)
           (-60.0 70.0)
  end
  begin
     id 3 
     name ltibia
     direction 0.34202 -0.939693 0   
     length 7.43097   
     axis 0 0 20   XYZ
    dof rx
    limits (-10.0 170.0)
  end
  begin
     id 4 
     name lfoot
     direction 0.0334653 -0.0919451 0.995202   
     length 1.78438   
     axis -90 7.62852e-016 20   XYZ
    dof rx rz
    limits (-45.0 90.0)
           (-70.0 20.0)
  end
  begin
     id 5 
     name ltoes
     direction 1.53535e-011 -4.21933e-011 1   
     length 0.90832   
     axis -90 7.62852e-016 20   XYZ
    dof rx
    limits (-90.0 20.0)
  end
  begin
     id 6 
     name rhipjoint
     direction -0.682059 -0.67077 0.291312   
     length 2.43143  
     axis 0 0 0  XYZ 
  end
  begin
     id 7 
     name rfemur
     direction -0.34202 -0.939693 0   
     length 6.63488   
     axis 0 0 -20   XYZ
    dof rx ry rz
    limits (-160.0 20.0)
           (-70.0 70.0)
           (-70.0 60.0)
  end
  begin
     id 8 
     name rtibia
     direction -0.34202 -0.939693 0   
     length 6.86532   
     axis 0 0 -20   XYZ
    dof rx
    limits (-10.0 170.0)
 end
 begin
     id 9 
     name rfoot
     direction -0.105199 -0.289033 0.951521   
     length 1.77126  
     axis -90 -7.62852e-016 -20   XYZ
    dof rx rz
    limits (-45.0 90.0)
           (-20.0 70.0)
  end
  begin
     id 10 
     name rtoes
     direction -1.53551e-011 -4.21978e-011 1   
     length 0.889273   
     axis -90 -7.62852e-016 -20   XYZ
    dof rx
    limits (-90.0 20.0)
  end
  begin
     id 11 
     name lowerback
     direction -0.0514305 0.998089 0.034245   
     length 2.02077   
     axis 0 0 0   XYZ
    dof rx ry rz
    limits (-20.0 45.0)
           (-30.0 30.0)
           (-30.0 30.0)
  end
  begin
     id 12 
     name upperback
     direction 0.0203189 0.999449 -0.0262315   
     length 2.01413   
     axis 0 0 0   XYZ
    dof rx ry rz
    limits (-20.0 45.0)
           (-30.0 30.0)
           (-30.0 30.0)
  end
  begin
     id 13 
     name thorax
     direction 0.0452736 0.998142 -0.0407729   
     length 2.02986   
     axis 0 0 0   XYZ
    dof rx ry rz
    limits (-20.0 45.0)
           (-30.0 30.0)
           (-30.0 30.0)
  end
  begin
     id 14 
     name lowerneck
     direction -0.0180464 0.999645 -0.0195774   
     length 1.59034   
     axis 0 0 0   XYZ
    dof rx ry rz
    limits (-20.0 45.0)
           (-30.0 30.0)
           (-30.0 30.0)
  end
  begin
     id 15 
     name upperneck
     direction 0.0732272 0.979935 -0.18538   
     length 1.57486   
     axis 0 0 0   XYZ
    dof rx ry rz
    limits (-20.0 45.0)
           (-30.0 30.0)
           (-30.0 30.0)
  end
  begin
     id 16
     name head
     direction 0.0252963 0.997909 -0.059472  
     length 1.60334  
     axis 0 0 0   XYZ
    dof rx ry rz
    limits (-20.0 45.0)
           (-30.0 30.0)
           (-30.0 30.0)
  end
  begin
     id 17 
     name lclavicle
     direction 0.943819 0.330449 0.00315172  
     length 3.50322  
     axis 0 0 0   XYZ
    dof ry rz
    limits (-20.0 10.0)
           (0.0 20.0)
  end
  begin
     id 18 
     name lhumerus
     direction 1 -4.48949e-011 2.22502e-028   
     length 4.63208   
     axis 180 -30 -90   XYZ
    dof rx ry rz
    limits (-60.0 90.0)
           (-90.0 90.0)
           (-90.0 90.0)
  end
  begin
     id 19
     name lradius
     direction 1 -4.48967e-011 -4.10197e-027   
     length 3.41924   
     axis 180 -30 -90   XYZ
    dof rx
    limits (-10.0 170.0)
  end
  begin
     id 20
     name lwrist
     direction 1 -4.48987e-011 -1.24264e-027   
     length 1.70962   
     axis 2.50585e-015 90 90   XYZ
    dof ry
    limits (-180.0 0.0)
 end
  begin
     id 21 
     name lhand
     direction 1 -4.48983e-011 -2.48528e-027   
     length 0.62537   
     axis 1.58582e-015 90 90   XYZ
    dof rx rz
    limits (-90.0 90.0)
           (-45.0 45.0)
  end
  begin
     id 22 
     name lfingers
     direction 1 -4.48896e-011 -4.97056e-027   
     length 0.50419   
     axis 3.17164e-015 90 90   XYZ
    dof rx
    limits (0.0 90.0)
  end
  begin
     id 23
     name lthumb
     direction 0.707107 -6.34803e-011 0.707107   
     length 0.723919   
     axis -90 45 2.85299e-015   XYZ
    dof rx rz
    limits (-45.0 45.0)
           (-45.0 45.0)
  end
  begin
     id 24 
     name rclavicle
     direction -0.964499 0.260664 -0.0423695   
     length 3.91997  
     axis 0 0 0   XYZ 
    dof ry rz
    limits (-10.0 20.0)
           (-20.0 0.0)
  end
  begin
     id 25 
     name rhumerus
     direction -1 -4.48957e-011 -1.98656e-027  
     length 4.4064   
     axis 180 30 90   XYZ
    dof rx ry rz
    limits (-90.0 60.0)
           (-90.0 90.0)
           (-90.0 90.0)
  end
  begin
     id 26 
     name rradius
     direction -1 -4.48968e-011 1.96972e-027   
     length 3.44675   
     axis 180 30 90   XYZ
    dof rx
    limits (-10.0 170.0)
  end
  begin
     id 27 
     name rwrist
     direction -1 -4.48974e-011 -1.24264e-027   
     length 1.72338   
     axis 2.50585e-015 -90 -90   XYZ
    dof ry
    limits (-180.0 0.0)
  end
  begin
     id 28
     name rhand
     direction -1 -4.48901e-011 -2.48528e-027   
     length 0.513674   
     axis 1.58582e-015 -90 -90   XYZ
    dof rx rz
    limits (-90.0 90.0)
           (-45.0 45.0)
  end
  begin
     id 29
     name rfingers
     direction -1 -4.48946e-011 -4.97056e-027   
     length 0.414137   
     axis 3.17164e-015 -90 -90   XYZ
    dof rx
    limits (0.0 90.0)
  end
  begin
     id 30
     name rthumb
     direction -0.707107 -6.34859e-011 0.707107   
     length 0.59462   
     axis -90 -45 -2.85299e-015   XYZ
    dof rx rz
    limits (-45.0 45.0)
           (-45.0 45.0)
  end
:hierarchy
  begin
    root lhipjoint rhipjoint lowerback
    lhipjoint lfemur
    lfemur ltibia
    ltibia lfoot
    lfoot ltoes
    rhipjoint rfemur
    rfemur rtibia
    rtibia rfoot
    rfoot rtoes
    lowerback upperback
    upperback thorax
    thorax lowerneck lclavicle rclavicle
    lowerneck upperneck
    upperneck head
    lclavicle lhumerus
    lhumerus lradius
    lradius lwrist
    lwrist lhand lthumb
    lhand lfingers
    rclavicle rhumerus
    rhumerus rradius
    rradius rwrist
    rwrist rhand rthumb
    rhand rfingers
  end

#!OML:ASF E:\inclinewalkrobotboard\Project 1\Capture day 1\Session 1\subject1.ASF
:FULLY-SPECIFIED
:DEGREES
19
root 10.0033 12.6378 -8.35352 1.03135 2.8866 1.647
lowerback 12.1253 0.211753 -5.60131
upperback 7.73635 -0.243271 0.903216
thorax 1.37048 -0.337922 4.12241
lowerneck -10.1552 -5.62335 -5.12786
upperneck 11.7194 -7.27257 3.59833
head 5.52078 -3.52457 1.38027
rclavicle -1.44119e-015 5.36719e-015
rhumerus 50.7852 22.1843 -20.2969
rradius 54.3464
rwrist 5.39105
rhand -22.3622 -32.0796
rfingers 7.12502
rthumb 4.05903 -62.0207
lclavicle -1.44119e-015 5.36719e-015
lhumerus 53.7444 -20.9484 19.178
lradius 48.6808
lwrist -19.0719
lhand -40.4577 -26.8333
lfingers 7.12502
lthumb -13.409 2.71516
rfemur -41.2844 -6.13321 14.5213
rtibia 0
rfoot 0 0
rtoes 0
lfemur -45.1018 -1.78477 -15.7539
ltibia 0
lfoot 0 0
ltoes 0
20
root 10.0032 12.6361 -8.34557 0.914097 2.97014 2.15829
lowerback 12.0572 0.269534 -6.00873
upperback 7.84713 -0.198121 0.756706
thorax 1.5265 -0.333524 4.19311
lowerneck -10.8682 -5.44512 -4.80756
upperneck 13.0031 -7.04072 3.27959
head 6.0113 -3.40556 1.21696
rclavicle 3.37934e-015 -1.19271e-014
rhumerus 50.588 22.1216 -20.2385
rradius 54.1782
rwrist 5.59295
rhand -22.2874 -32.363
rfingers 7.12502
rthumb 4.13127 -62.3027
lclavicle 3.37934e-015 -1.19271e-014
lhumerus 53.9174 -21.0102 19.2103
lradius 48.499
lwrist -19.1568
lhand -40.6418 -27.0168
lfingers 7.12502
lthumb -13.5864 2.51986
rfemur -41.0293 -6.48813 13.8835
rtibia 0
rfoot 0 0
rtoes 0
lfemur -44.7791 -1.93577 -16.3664
ltibia 0
lfoot 0 0
ltoes 0
21
root 9.99699 12.6349 -8.35097 0.886344 2.9508 2.03494
lowerback 11.9987 0.325908 -5.90129
upperback 7.90188 -0.108388 0.819741
thorax 1.60425 -0.289848 4.1888
lowerneck -11.6099 -5.24229 -4.52235
upperneck 14.3146 -6.77167 2.97791
head 6.52291 -3.2695 1.06848
rclavicle -7.60351e-015 9.93923e-015
rhumerus 50.4744 22.076 -20.135
rradius 53.998
rwrist 5.79105
rhand -22.1971 -32.6855
rfingers 7.12502
rthumb 4.21842 -62.6235
lclavicle -7.60351e-015 9.93923e-015
lhumerus 54.0084 -21.0549 19.2622
lradius 48.3487
lwrist -19.2143
lhand -40.6866 -26.9718
lfingers 7.12502
lthumb -13.6296 2.56202
rfemur -41.0015 -6.50298 14.0692
rtibia 0
rfoot 0 0
rtoes 0
lfemur -44.8207 -1.76247 -16.1975
ltibia 0
lfoot 0 0
ltoes 0
22
root 9.992 12.6355 -8.35212 0.904804 2.9342 1.91906
lowerback 11.9117 0.35213 -5.82529
upperback 7.92078 -0.0608925 0.899303
thorax 1.66494 -0.267523 4.22409
lowerneck -11.7048 -4.88243 -4.43318
upperneck 15.2986 -6.2884 2.79013
head 6.82702 -3.04223 1.03002
rclavicle 9.49197e-015 2.68359e-015
rhumerus 50.4898 22.12 -19.971
rradius 53.8189
rwrist 5.82932
rhand -22.1613 -32.9251
rfingers 7.12502
rthumb 4.25302 -62.8624
lclavicle 9.49197e-015 2.68359e-015
lhumerus 53.984 -21.0957 19.3302
lradius 48.2386
lwrist -19.277
lhand -40.4478 -26.3145
lfingers 7.12502
lthumb -13.3994 3.2346
rfemur -41.0601 -6.50481 14.237
rtibia 0
rfoot 0 0
rtoes 0
lfemur -44.888 -1.58266 -16.048
ltibia 0
lfoot 0 0
ltoes 0
23
root 9.98809 12.6353 -8.35339 0.897565 2.86676 1.98386
lowerback 11.9221 0.412158 -5.91906
upperback 7.92758 0.00898291 0.923228
thorax 1.66018 -0.23671 4.29523
lowerneck -12.0119 -4.53714 -4.33684
upperneck 16.5016 -5.81557 2.5845
head 7.24289 -2.82017 0.979119
rclavicle -2.98177e-015 -1.09332e-015
rhumerus 50.4926 22.1942 -19.7803
rradius 53.6338
rwrist 5.78794
rhand -22.401 -33.0919
rfingers 7.12502
rthumb 4.02152 -63.0337
lclavicle -2.98177e-015 -1.09332e-015
lhumerus 53.9633 -21.1532 19.4438
lradius 48.1324
lwrist -19.4159
lhand -40.2803 -25.3997
lfingers 7.12502
lthumb -13.238 4.15996
rfemur -41.1632 -6.52656 14.1983
rtibia 0
rfoot 0 0
rtoes 0
lfemur -44.8545 -1.38595 -16.1079
ltibia 0
lfoot 0 0
ltoes 0
24
root 9.98173 12.6325 -8.35777 0.819086 2.79536 1.74981
lowerback 12.0599 0.483449 -5.72109
upperback 7.92426 0.112589 1.02443
thorax 1.56759 -0.17704 4.27941
lowerneck -12.7205 -4.25416 -4.11496
upperneck 17.8576 -5.43783 2.38503
head 7.78676 -2.63278 0.893364
rclavicle 2.13694e-015 1.03368e-014
rhumerus 50.4097 22.2464 -19.6566
rradius 53.3912
rwrist 5.7674
rhand -22.6686 -33.074
rfingers 7.12502
rthumb 3.76312 -63.0205
lclavicle 2.13694e-015 1.03368e-014
lhumerus 53.9882 -21.2389 19.6659
lradius 47.9843
lwrist -19.6174
lhand -40.3783 -25.0683
lfingers 7.12502
lthumb -13.3325 4.48513
rfemur -41.1526 -6.46165 14.5187
rtibia 0
rfoot 0 0
rtoes 0
lfemur -44.8324 -1.08329 -15.8052
ltibia 0
lfoot 0 0
ltoes 0
25
root 9.97663 12.6297 -8.3611 0.724065 2.76051 1.63154
lowerback 12.2193 0.523017 -5.64219
upperback 7.89975 0.162071 1.10924
thorax 1.44922 -0.147313 4.31919
lowerneck -13.28 -3.97712 -3.90612
upperneck 19.1566 -5.05617 2.12835
head 8.29395 -2.4535 0.797694
rclavicle -4.32357e-015 -2.38542e-014
rhumerus 50.4743 22.36 -19.4679
rradius 53.1418
rwrist 5.70042
rhand -22.629 -33.2189
rfingers 7.12502
rthumb 3.80141 -63.1647
lclavicle -4.32357e-015 -2.38542e-014
lhumerus 53.9154 -21.3164 20.0225
lradius 47.7792
lwrist -19.7516
lhand -40.4407 -25.2226
lfingers 7.12502
lthumb -13.3926 4.32689
rfemur -41.065 -6.44835 14.6798
rtibia 0
rfoot 0 0
rtoes 0
lfemur -44.772 -0.862435 -15.6449
ltibia 0
lfoot 0 0
ltoes 0
26
root 9.97361 12.6292 -8.36142 0.671699 2.79135 1.76331
lowerback 12.3064 0.530983 -5.79637
upperback 7.8185 0.150652 1.14624
thorax 1.31975 -0.153585 4.44707
lowerneck -12.9271 -3.62066 -4.03353
upperneck 19.9005 -4.58278 2.20827
head 8.47026 -2.23349 0.902098
rclavicle -7.85199e-015 1.23246e-014
rhumerus 50.5975 22.5988 -19.2205
rradius 52.9262
rwrist 5.65924
rhand -22.5027 -33.4016
rfingers 7.12502
rthumb 3.92334 -63.3452
lclavicle -7.85199e-015 1.23246e-014
lhumerus 53.7411 -21.4739 20.4791
lradius 47.5376
lwrist -19.7581
lhand -40.3228 -25.1845
lfingers 7.12502
lthumb -13.279 4.37243
rfemur -40.9763 -6.54988 14.5239
rtibia 0
rfoot 0 0
rtoes 0
lfemur -44.6812 -0.814688 -15.7908
ltibia 0
lfoot 0 0
ltoes 0
27
root 9.96998 12.6279 -8.3614 0.575156 2.81421 1.70618
lowerback 12.4378 0.558677 -5.73716
upperback 7.73976 0.183473 1.22008
thorax 1.16096 -0.129955 4.48804
lowerneck -12.6788 -3.31465 -3.97673
upperneck 20.7839 -4.16549 2.05895
head 8.70569 -2.04946 0.891409
rclavicle 4.17448e-015 -1.03368e-014
rhumerus 50.5264 22.8212 -19.0766
rradius 52.769
rwrist 5.6156
rhand -22.4617 -33.341
rfingers 7.12502
rthumb 3.96293 -63.2839
lclavicle 4.17448e-015 -1.03368e-014
lhumerus 53.6432 -21.6345 20.9377
lradius 47.2558
lwrist -19.7332
lhand -40.1555 -25.5325
lfingers 7.12502
lthumb -13.1176 4.03497
rfemur -40.8176 -6.58673 14.5865
rtibia 0
rfoot 0 0
rtoes 0
lfemur -44.5787 -0.747805 -15.7173
ltibia 0
lfoot 0 0
ltoes 0
